<?xml version="1.0" standalone="no"?>
<!DOCTYPE svg PUBLIC "-//W3C//DTD SVG 20010904//EN"
 "http://www.w3.org/TR/2001/REC-SVG-20010904/DTD/svg10.dtd">
<svg version="1.0" xmlns="http://www.w3.org/2000/svg"
 width="389.000000pt" height="389.000000pt" viewBox="0 0 389.000000 389.000000"
 preserveAspectRatio="xMidYMid meet">
<metadata>
Created by potrace 1.11, written by Peter Selinger 2001-2013
</metadata>
<g transform="translate(0.000000,389.000000) scale(0.100000,-0.100000)"
fill="#000000" stroke="none">
<path d="M2462 3452 c-83 -53 -643 -425 -1243 -827 -1023 -684 -1129 -758
-1129 -796 0 -10 57 -66 85 -85 14 -9 25 -22 25 -29 0 -7 27 -37 61 -67 34
-29 67 -64 74 -78 7 -14 16 -64 20 -110 l7 -85 69 -65 c75 -71 73 -66 84 -220
7 -96 13 -129 28 -147 14 -19 40 -16 64 7 19 17 21 27 16 92 l-5 73 23 -20
c64 -54 79 -75 80 -112 0 -21 2 -47 4 -58 2 -11 6 -50 8 -87 6 -74 29 -117 62
-118 36 0 45 20 45 98 l0 74 40 -32 c22 -18 45 -40 50 -49 5 -10 12 -67 15
-127 7 -120 26 -177 61 -182 35 -5 53 27 56 102 l3 68 27 -25 c16 -14 34 -30
42 -34 9 -6 15 -40 19 -118 8 -136 14 -168 39 -195 l20 -22 30 28 c29 28 29
29 23 114 -11 148 -10 189 3 202 10 10 17 10 31 1 15 -9 26 -6 60 14 23 14 44
23 45 21 1 -1 8 -34 15 -73 18 -101 60 -136 97 -81 13 20 14 43 10 129 l-6
105 37 29 c43 34 385 267 773 528 346 233 525 355 630 429 47 34 144 99 215
146 72 46 195 131 275 189 80 57 161 114 180 127 144 96 210 155 210 188 0 12
-23 45 -53 76 -47 49 -330 319 -377 360 -14 12 -193 181 -334 315 -28 26 -124
116 -371 349 -33 32 -67 61 -76 66 -12 7 -53 -14 -167 -88z"/>
</g>
</svg>
